<svg id="visual" viewBox="0 0 900 600" width="900" height="600" xmlns="http://www.w3.org/2000/svg" xmlns:xlink="http://www.w3.org/1999/xlink" version="1.1"><rect x="0" y="0" width="900" height="600" fill="#FF0066"></rect><g transform="translate(448.3740561078431 284.2011127214366)"><path d="M156.4 -164.4C202.7 -147.6 240.2 -98.3 255 -41C269.7 16.2 261.7 81.3 229 126.6C196.2 171.9 138.6 197.3 85.5 202.6C32.4 208 -16.3 193.3 -73.1 181.1C-129.9 169 -194.9 159.5 -228.8 121.9C-262.8 84.2 -265.8 18.4 -248.4 -37.4C-230.9 -93.1 -192.9 -138.9 -148.1 -156C-103.3 -173.1 -51.6 -161.5 1.7 -163.6C55.1 -165.6 110.1 -181.3 156.4 -164.4" fill="#BB004B"></path></g></svg>