<?xml version="1.0" standalone="no"?>
<!DOCTYPE svg PUBLIC "-//W3C//DTD SVG 20010904//EN"
 "http://www.w3.org/TR/2001/REC-SVG-20010904/DTD/svg10.dtd">
<svg version="1.0" xmlns="http://www.w3.org/2000/svg"
 width="781.000000pt" height="800.000000pt" viewBox="0 0 781.000000 800.000000"
 preserveAspectRatio="xMidYMid meet">

<g transform="translate(0.000000,800.000000) scale(0.100000,-0.100000)"
fill="#fff" stroke="none">
<path d="M1390 6325 c-481 -597 -879 -1085 -885 -1085 -6 0 -11 -11 -10 -24 0
-17 71 -113 220 -298 921 -1141 1542 -1925 1538 -1939 -2 -4 -386 -495 -854
-1091 -469 -596 -865 -1100 -881 -1120 l-30 -38 2660 0 2660 0 882 1121 c485
616 883 1128 885 1138 2 10 -29 56 -74 112 -217 266 -771 962 -1199 1506
l-482 613 871 1080 c478 594 872 1087 876 1095 4 13 -321 15 -2649 15 l-2655
0 -873 -1085z"/>
</g>
</svg>
